<?xml version="1.0" ?><svg id="day-light-time-sun" style="enable-background:new 0 0 16 16;" version="1.1" viewBox="0 0 16 16" xml:space="preserve" xmlns="http://www.w3.org/2000/svg" xmlns:xlink="http://www.w3.org/1999/xlink"><path d="M8,3.5C5.519,3.5,3.5,5.519,3.5,8s2.019,4.5,4.5,4.5s4.5-2.019,4.5-4.5S10.481,3.5,8,3.5z M8,11.5c-1.93,0-3.5-1.57-3.5-3.5  S6.07,4.5,8,4.5s3.5,1.57,3.5,3.5S9.93,11.5,8,11.5z"/><rect height="2" width="1" x="7.5"/><rect height="2" width="1" x="7.5" y="14"/><rect height="1" width="2" x="14" y="7.5"/><rect height="1" width="2" y="7.5"/><rect height="2" transform="matrix(0.7071 -0.7071 0.7071 0.7071 -5.3639 12.9497)" width="1" x="12.45" y="11.95"/><rect height="2" transform="matrix(0.7071 -0.7071 0.7071 0.7071 -1.2635 3.0503)" width="1" x="2.55" y="2.05"/><rect height="1" transform="matrix(0.7071 -0.7071 0.7071 0.7071 -8.2634 5.9498)" width="2" x="2.05" y="12.45"/><rect height="1" transform="matrix(0.7071 -0.7071 0.7071 0.7071 1.636 10.0502)" width="2" x="11.95" y="2.55"/></svg>